<?xml version="1.0" encoding="utf-8"?>
<!-- Generator: Adobe Illustrator 18.0.0, SVG Export Plug-In . SVG Version: 6.00 Build 0)  -->
<!DOCTYPE svg PUBLIC "-//W3C//DTD SVG 1.1//EN" "http://www.w3.org/Graphics/SVG/1.1/DTD/svg11.dtd">
<svg version="1.1" id="Слой_2" xmlns="http://www.w3.org/2000/svg" xmlns:xlink="http://www.w3.org/1999/xlink" x="0px" y="0px"
	 viewBox="0 321 1581.7 382.1" enable-background="new 0 321 1581.7 382.1" xml:space="preserve">
<path fill="#000000"    d="M1546.7,649.8v-18.3h-64.4v-98.4h0.1l8.2-5h-97.5
	l6.9,5h1.2v98.4h-9.5v-42h-14.6v-4.8h-2.1v-4.1h-39.5v-2.9h-11.7v-6h-6.8v6h-4.8v4.5h-15.9v7.3h-29.2v6.4h-1.9v20.9h-4.5v-18h-12.3
	v-9.3h-3.2v-25h-5.4v-9.1h-2.8v-6.8h-4.8l2.3-3.8h-13.4v-20.4h-0.8v20.4h-5.4l2.3,3.8h-8.1V515h-1.9v-16.7h-1.5v-8.1h0.4l-2-5.6
	l-2,5.6h-0.9v-8h2.3v-2.6h-2.3V472h2.3v-2.3h-2.3v-4.2h-1.1v-5.2h-2.5v-19.2h-1.9v-5.8h-1.2l-4-15.4v-25.2h-0.7v24.1l-3.6,16.7h-1.1
	v5.8h-1.7v19.5h-2.9v5.2h-0.8v4.2h-2v2.3h2v7.6h-2v2.5h2v7.9l-2-5.6l-2,5.6v8.1h-1.6v16.7h-3.2v83.5h-36.4v1.6l-8.5,3v2.8h-20.7v7.7
	h-4.1v-3.2h-17.1v6h-8.9v-3.6v-6.8h-9.1v6.8h-4.2v7.3h-15.9v-3.6h-5v-6h-4.5v-62.1h-20v-5.4h-15v-70.4h-4.1v-9.5h-4.4v-9.5h-4.1V443
	H924v10.9h-3.6v9.5h-4.1v9.5h-4.5V536h-32.3v7.3h-20.9V452h-4.8v-38h-1.2v-10.9h-3.2v-6.4H846v-6.1h-1.6v-6h-4.1v-5.2h-1.6v-3.2H835
	v-5.4h-3v-4h-1.5v-4h-2.5v-4.4h-1.9v-4.2h-0.7l-3.7-5.8v-20.3h-0.1v20.4l-3.4,5.7h-0.8v4.2h-2v4.4h-1.9v4.1h-2.3v4h-3.4v5.4H804v3.2
	h-1.3v5.2h-4.1v6h-1.3v6.1h-3.7v6.4h-3v10.9h-1.1v38h-5.3v113l-6.6,5.6H769l-1.7-3.7h-7l-4.8,0.7l-2.1,3h-2.1l-2.1-3.7
	c0,0-0.5,2.1-0.8,3.7H725v11.8h-25.4v-65.3h-33.1v-2.4h-4.8v2.4h-3.4v-2.4h-4.8v2.4h-2.6v-2.4h-2.9v-10.1h1.7v-3.4h-4.8v3.4h1.9v9.8
	h-0.4v2.4h-2.8v-2.4h-4.8v2.4h-27.2v65.3h-23.2v24.5H582v-5.4h-6.4v-19.1h-12.7v-11.8h-12.3V522h-82.5v65.9h-12.5v-5H410v5h-12.2
	V527h-13v-6.2h-15.2v-2h-2.8v2h-10.7v-2h-0.9v2h-10.9v-22.5H323v-3.2h-2.8v3.2h-6v-3.2h3.2v-3.8H294v3.8h2.9v3.2h-6.2v-3.2h-2v3.2
	h-2v-3.2h-2.1v3.2h-2.8v-3.2H279v3.2h-11.4v137.3H146.8v-27.4h-3.6V599h-5.4v-9.4h-5v-8.6H80.9v8.6H65.5v9.5h-9.9v9.1h-9.9v28.9H6.3
	v13H1v53h1580.7v-53L1546.7,649.8L1546.7,649.8z"/>
</svg>
